<svg viewBox="0 0 32 32" fill="none" xmlns="http://www.w3.org/2000/svg"><circle cx="16" cy="16" r="16" fill="#16C784"></circle><path d="M22.2742 11.8013C21.4661 11.4623 20.6573 11.3334 19.849 11.3334C17.283 11.3332 14.7171 12.6321 12.1511 12.6321C11.5075 12.6321 10.8644 12.5505 10.2209 12.3463C10.1486 12.3234 10.0761 12.3125 10.0052 12.3125C9.64671 12.3125 9.33337 12.59 9.33337 12.9752V19.5848C9.33337 19.848 9.484 20.0973 9.72587 20.1986C10.534 20.5377 11.3427 20.6667 12.1511 20.6667C14.7171 20.6667 17.2832 19.3677 19.8492 19.3677C20.4927 19.3677 21.1359 19.4494 21.7794 19.6536C21.8517 19.6765 21.9242 19.6873 21.995 19.6873C22.3536 19.6873 22.6669 19.4098 22.6669 19.0246V12.4152C22.6667 12.1519 22.5161 11.9027 22.2742 11.8013ZM16 18C15.0794 18 14.3334 17.1044 14.3334 16C14.3334 14.8955 15.0796 14 16 14C16.9205 14 17.6667 14.8955 17.6667 16C17.6667 17.1048 16.9202 18 16 18Z" fill="white"></path></svg>