<svg viewBox="0 0 32 32" fill="none" xmlns="http://www.w3.org/2000/svg"><circle cx="16" cy="16" r="16" fill="#EFF2F5"></circle><path d="M10.9525 14.5H21.0477C21.2048 14.5 21.3334 14.6266 21.3334 14.7812V20.875C21.3334 21.4961 20.8215 22 20.1906 22H11.8096C11.1787 22 10.6667 21.4961 10.6667 20.875V14.7812C10.6667 14.6266 10.7953 14.5 10.9525 14.5ZM21.3334 13.4688V12.625C21.3334 12.0039 20.8215 11.5 20.1906 11.5H19.0477V10.2812C19.0477 10.1266 18.9191 10 18.762 10H17.8096C17.6525 10 17.5239 10.1266 17.5239 10.2812V11.5H14.4763V10.2812C14.4763 10.1266 14.3477 10 14.1906 10H13.2382C13.081 10 12.9525 10.1266 12.9525 10.2812V11.5H11.8096C11.1787 11.5 10.6667 12.0039 10.6667 12.625V13.4688C10.6667 13.6234 10.7953 13.75 10.9525 13.75H21.0477C21.2048 13.75 21.3334 13.6234 21.3334 13.4688Z" fill="#808A9D"></path></svg>