<svg viewBox="0 0 32 32" fill="none" xmlns="http://www.w3.org/2000/svg"><circle cx="16" cy="16" r="16" fill="#EFF2F5"></circle><path d="M21.8846 10.668C20.6161 10.7421 18.0948 11.0116 16.5383 11.9916C16.4309 12.0592 16.3701 12.1795 16.3701 12.3052V20.9687C16.3701 21.2437 16.6624 21.4175 16.9089 21.2899C18.5103 20.4608 20.8263 20.2347 21.9714 20.1728C22.3624 20.1516 22.6664 19.8292 22.6664 19.4428V11.399C22.6666 10.9773 22.311 10.6433 21.8846 10.668ZM15.4613 11.9916C13.905 11.0116 11.3837 10.7423 10.1152 10.668C9.68881 10.6433 9.33325 10.9773 9.33325 11.399V19.443C9.33325 19.8297 9.63719 20.152 10.0282 20.173C11.1738 20.2349 13.4909 20.4613 15.0923 21.2908C15.3381 21.4182 15.6295 21.2447 15.6295 20.9704V12.3009C15.6295 12.1749 15.5689 12.0595 15.4613 11.9916Z" fill="#808A9D"></path></svg>