<svg viewBox="0 0 32 32" fill="none" xmlns="http://www.w3.org/2000/svg"><circle cx="16" cy="16" r="16" fill="#23DCF5"></circle><path d="M13.3749 14.2C14.5025 14.2 15.4166 13.2598 15.4166 12.1C15.4166 10.9402 14.5025 10 13.3749 10C12.2473 10 11.3333 10.9402 11.3333 12.1C11.3333 13.2598 12.2473 14.2 13.3749 14.2Z" fill="white"></path><path d="M18.6249 22C19.7525 22 20.6666 21.0598 20.6666 19.9C20.6666 18.7402 19.7525 17.8 18.6249 17.8C17.4973 17.8 16.5833 18.7402 16.5833 19.9C16.5833 21.0598 17.4973 22 18.6249 22Z" fill="white"></path><path fill-rule="evenodd" clip-rule="evenodd" d="M20.5481 11.3221C20.812 11.5788 20.818 12.0008 20.5613 12.2648L12.3947 20.6648C12.138 20.9288 11.7159 20.9347 11.4519 20.6781C11.188 20.4214 11.182 19.9994 11.4387 19.7354L19.6053 11.3354C19.862 11.0714 20.2841 11.0654 20.5481 11.3221Z" fill="white"></path></svg>