<svg viewBox="0 0 32 32" fill="none" xmlns="http://www.w3.org/2000/svg"><circle cx="16" cy="16" r="16" fill="#F5B97F"></circle><path fill-rule="evenodd" clip-rule="evenodd" d="M14 16H10V19.3333C10 20.4379 10.8954 21.3333 12 21.3333H20C21.1046 21.3333 22 20.4379 22 19.3333V16H18V16.5238C18 17.0761 17.5523 17.5238 17 17.5238H15C14.4477 17.5238 14 17.0761 14 16.5238V16Z" fill="white"></path><path fill-rule="evenodd" clip-rule="evenodd" d="M17.875 12H17.8333H16.375H15.625H14.1667H14.125V12.1666V13.3333H17.875V12.1666V12ZM19.3333 13.3333V12V11.8334V11.6666C19.3333 11.1143 18.8856 10.6666 18.3333 10.6666H17.875H14.125H13.6667C13.1144 10.6666 12.6667 11.1143 12.6667 11.6666V11.8334V12V13.3333H12C10.8954 13.3333 10 14.2287 10 15.3333V16H22V15.3333C22 14.2287 21.1046 13.3333 20 13.3333H19.3333Z" fill="white"></path></svg>