<svg viewBox="0 0 32 32" fill="none" xmlns="http://www.w3.org/2000/svg"><circle cx="16" cy="16" r="16" fill="#EFF2F5"></circle><path d="M13.8803 21.1651C13.8806 21.3289 13.9299 21.4893 14.0224 21.6257L14.4756 22.2947C14.553 22.4091 14.658 22.5029 14.7812 22.5678C14.9044 22.6326 15.0421 22.6666 15.1819 22.6666H16.8182C16.958 22.6666 17.0957 22.6326 17.2189 22.5678C17.3421 22.5029 17.4471 22.4091 17.5245 22.2947L17.9777 21.6257C18.0702 21.4892 18.1196 21.329 18.1198 21.1651L18.1209 20.1664H13.879L13.8803 21.1651ZM11.3333 13.9165C11.3333 15.072 11.7694 16.1261 12.4883 16.9316C12.9263 17.4224 13.6114 18.4479 13.8726 19.313C13.8737 19.3198 13.8745 19.3266 13.8755 19.3333H18.1243C18.1254 19.3266 18.1262 19.32 18.1272 19.313C18.3884 18.4479 19.0736 17.4224 19.5116 16.9316C20.2304 16.1261 20.6666 15.072 20.6666 13.9165C20.6666 11.3804 18.5695 9.32546 15.9853 9.33327C13.2805 9.34135 11.3333 11.4939 11.3333 13.9165ZM15.9999 11.8332C14.8303 11.8332 13.8787 12.7678 13.8787 13.9165C13.8787 14.1467 13.6889 14.3332 13.4545 14.3332C13.2201 14.3332 13.0302 14.1467 13.0302 13.9165C13.0302 12.3082 14.3623 10.9999 15.9999 10.9999C16.2343 10.9999 16.4242 11.1864 16.4242 11.4166C16.4242 11.6468 16.2343 11.8332 15.9999 11.8332Z" fill="#808A9D"></path></svg>