<svg viewBox="0 0 32 32" fill="none" xmlns="http://www.w3.org/2000/svg"><circle cx="16" cy="16" r="16" fill="#3861FB"></circle><path d="M11.3333 11.3334C11.3333 10.2288 12.2287 9.33337 13.3333 9.33337H18.6666C19.7712 9.33337 20.6666 10.2288 20.6666 11.3334V19.3334H11.3333V11.3334Z" fill="white"></path><path fill-rule="evenodd" clip-rule="evenodd" d="M20.6666 19.3334H11.3333V20.6667C11.3333 21.7713 12.2287 22.6667 13.3333 22.6667H18.6666C19.7712 22.6667 20.6666 21.7713 20.6666 20.6667V19.3334ZM15.9999 22C15.4466 22 14.9999 21.5534 14.9999 21C14.9999 20.4467 15.4466 20 15.9999 20C16.5533 20 16.9999 20.4467 16.9999 21C16.9999 21.5534 16.5533 22 15.9999 22Z" fill="white"></path></svg>