<svg viewBox="0 0 32 32" fill="none" xmlns="http://www.w3.org/2000/svg"><circle cx="16" cy="16" r="16" fill="#EFF2F5"></circle><path d="M22.414 14.4152C22.5155 14.3398 22.6666 14.4103 22.6666 14.5294V19.4999C22.6666 20.144 22.1067 20.6666 21.4166 20.6666H10.5833C9.89315 20.6666 9.33325 20.144 9.33325 19.4999V14.5319C9.33325 14.4103 9.48169 14.3423 9.58586 14.4176C10.1692 14.8405 10.9426 15.3777 13.5989 17.1787C14.1484 17.553 15.0754 18.3405 15.9999 18.3357C16.9296 18.343 17.8749 17.5385 18.4036 17.1787C21.0598 15.3777 21.8306 14.8381 22.414 14.4152ZM15.9999 17.5555C16.6041 17.5652 17.4739 16.8458 17.9114 16.5492C21.3671 14.2086 21.6301 14.0044 22.427 13.4211C22.578 13.3117 22.6666 13.1416 22.6666 12.9617V12.4999C22.6666 11.8558 22.1067 11.3333 21.4166 11.3333H10.5833C9.89315 11.3333 9.33325 11.8558 9.33325 12.4999V12.9617C9.33325 13.1416 9.42179 13.3093 9.57284 13.4211C10.3697 14.002 10.6327 14.2086 14.0885 16.5492C14.526 16.8458 15.3958 17.5652 15.9999 17.5555Z" fill="#808A9D"></path></svg>