<svg viewBox="0 0 32 32" fill="none" xmlns="http://www.w3.org/2000/svg"><circle cx="16" cy="16" r="16" fill="#EFF2F5"></circle><path fill-rule="evenodd" clip-rule="evenodd" d="M11.6667 10.6666C11.1145 10.6666 10.6667 11.1143 10.6667 11.6666V14.3333C10.6667 14.8856 11.1145 15.3333 11.6667 15.3333H14.3334C14.8857 15.3333 15.3334 14.8856 15.3334 14.3333V11.6666C15.3334 11.1143 14.8857 10.6666 14.3334 10.6666H11.6667ZM17.6667 10.6666C17.1145 10.6666 16.6667 11.1143 16.6667 11.6666V14.3333C16.6667 14.8856 17.1145 15.3333 17.6667 15.3333H20.3334C20.8857 15.3333 21.3334 14.8856 21.3334 14.3333V11.6666C21.3334 11.1143 20.8857 10.6666 20.3334 10.6666H17.6667ZM16.6667 17.6666C16.6667 17.1143 17.1145 16.6666 17.6667 16.6666H20.3334C20.8857 16.6666 21.3334 17.1143 21.3334 17.6666V20.3333C21.3334 20.8856 20.8857 21.3333 20.3334 21.3333H17.6667C17.1145 21.3333 16.6667 20.8856 16.6667 20.3333V17.6666ZM11.6667 16.6666C11.1145 16.6666 10.6667 17.1143 10.6667 17.6666V20.3333C10.6667 20.8856 11.1145 21.3333 11.6667 21.3333H14.3334C14.8857 21.3333 15.3334 20.8856 15.3334 20.3333V17.6666C15.3334 17.1143 14.8857 16.6666 14.3334 16.6666H11.6667Z" fill="#808A9D"></path></svg>